<svg width="51" height="51" viewBox="0 0 51 51" fill="none" xmlns="http://www.w3.org/2000/svg">
<path d="M25.9547 36.6566C25.571 36.6566 25.2159 36.5935 24.8893 36.4672C24.5628 36.3409 24.2446 36.1216 23.9348 35.8094L14.5683 26.4464C14.2203 26.0985 14.0392 25.6885 14.0249 25.2166C14.0106 24.7447 14.1917 24.3122 14.5683 23.9189C14.9639 23.5233 15.3894 23.3219 15.8446 23.3147C16.3022 23.3076 16.7276 23.5018 17.1209 23.8975L24.1672 30.9438V1.80754C24.1672 1.29989 24.3376 0.87447 24.6784 0.53127C25.0192 0.18807 25.4447 0.0176609 25.9547 0.0200442C26.4647 0.0224275 26.8901 0.192836 27.231 0.53127C27.5718 0.869703 27.7422 1.29513 27.7422 1.80754V30.9438L34.7885 23.8975C35.1365 23.5495 35.55 23.3672 36.029 23.3505C36.5081 23.3338 36.9442 23.5233 37.3375 23.9189C37.7188 24.3122 37.9131 24.734 37.9202 25.1845C37.9274 25.6349 37.7343 26.0556 37.3411 26.4464L27.9746 35.8129C27.6647 36.1228 27.3466 36.3409 27.02 36.4672C26.6959 36.5935 26.3408 36.6566 25.9547 36.6566ZM6.70689 50.07C5.06 50.07 3.68601 49.5195 2.58491 48.4184C1.48381 47.3173 0.932071 45.9421 0.929688 44.2928V37.4181C0.929688 36.9105 1.1001 36.4862 1.44091 36.1454C1.78173 35.8046 2.20715 35.633 2.71719 35.6306C3.22722 35.6282 3.65265 35.7998 3.99346 36.1454C4.33428 36.491 4.50469 36.9152 4.50469 37.4181V44.2928C4.50469 44.8434 4.73349 45.3487 5.19109 45.8086C5.64869 46.2686 6.15276 46.4974 6.70331 46.495H45.2061C45.7542 46.495 46.2583 46.2662 46.7183 45.8086C47.1783 45.351 47.4071 44.8458 47.4047 44.2928V37.4181C47.4047 36.9105 47.5751 36.4862 47.9159 36.1454C48.2567 35.8046 48.6822 35.633 49.1922 35.6306C49.7022 35.6282 50.1276 35.7998 50.4685 36.1454C50.8093 36.491 50.9797 36.9152 50.9797 37.4181V44.2928C50.9797 45.9397 50.4291 47.3137 49.328 48.4148C48.2269 49.5159 46.8518 50.0677 45.2025 50.07H6.70689Z" fill="black"/>
</svg>
