<?xml version="1.0" encoding="UTF-8"?>
<svg id="Caisse_qui_s_adapte" data-name="Caisse qui s&amp;apos;adapte" xmlns="http://www.w3.org/2000/svg" xmlns:xlink="http://www.w3.org/1999/xlink" viewBox="0 0 512 512">
  <defs>
    <style>
      .cls-1 {
        stroke: #fff;
        stroke-miterlimit: 10;
      }

      .cls-1, .cls-2 {
        fill: none;
      }

      .cls-1, .cls-2, .cls-3, .cls-4 {
        stroke-width: 4px;
      }

      .cls-2, .cls-3, .cls-4 {
        stroke: #000;
        stroke-linejoin: round;
      }

      .cls-3 {
        fill: #f5f5f7;
      }

      .cls-5 {
        clip-path: url(#clippath);
      }

      .cls-4 {
        fill: url(#Dégradé_sans_nom_51);
      }
    </style>
    <clipPath id="clippath">
      <path d="M471.59,224.17c-3.15-13.84-38.95-110.23-41.3-118.64-.28-.76-.33-.7-1.17-.7-5.92.04-10.78-.03-19.19,0-70.5.96-298.75-1.88-309.87,1.03-.63,1.69-2.36,6.34-4.8,12.88-10.13,28.16-29.15,76.53-38.66,104.61-.51,7.8.49,14.95,6.38,20.88,14.76,16.12,49.69,15.25,62.97-1.31.79-.93,1.91-2.14,2.93-2.47,1.01-.33,1.99.21,3.14,1.33,1.25,1.24,2.71,2.91,4.36,4.22,10.73,8.68,26.12,10.86,39.4,7.93,5.64-1.26,11.21-3.6,15.79-7.05,3.54-2.16,6.37-8.43,10.42-3.88,4.83,5.4,11.62,9.3,18.71,11.17,13.55,3.67,29,1.73,40.44-6.4,4.36-3.2,7.76-.27,11.74,2.02,13.24,7.03,30.46,7.15,43.88.55,3.07-1.48,5.93-3.58,8.41-5.72.99-.8,1.91-1.4,2.8-1.61,2.19-.57,4.11,1.38,5.76,2.72,7.01,5.93,17.69,9.63,29.42,9.41,11.42.05,24.95-5.1,31.2-13.11,1.14-1.13,2.18-3.17,3.84-3.07,1.15.17,2.43,1.95,3.28,3.05,6.41,8.44,19.1,14.14,33.53,13.9,18.83-.12,38.95-11.38,36.56-31.66v-.09Z"/>
    </clipPath>
    <linearGradient id="Dégradé_sans_nom_51" data-name="Dégradé sans nom 51" x1="209.85" y1="339.64" x2="174.34" y2="188.87" gradientTransform="translate(72.71 -28.38) rotate(12.95)" gradientUnits="userSpaceOnUse">
      <stop offset="0" stop-color="#e6332a"/>
      <stop offset=".8" stop-color="#f28e16"/>
    </linearGradient>
  </defs>
  <path class="cls-3" d="M428.72,393.09c-.02,5.5-4.47,9.96-9.97,9.97-78.85.15-173.45.13-234.04.13-1.66-.04-40.58.27-50.17.26-3.31,0-14.79,0-23.43,0-5.61,0-10.13-4.58-10.06-10.19.4-31.66,1.58-127.76,1.66-153.91,0-17.49,0-29.68,0-31.6,0-.33.03-.48.39-.48,9.47.39,262.15-.6,315.82.13,5.45.07,9.82,4.51,9.82,9.96.03,52.82.09,129.17-.04,175.72h0Z"/>
  <g>
    <path d="M471.59,224.17c-3.15-13.84-38.95-110.23-41.3-118.64-.28-.76-.33-.7-1.17-.7-5.92.04-10.78-.03-19.19,0-70.5.96-298.75-1.88-309.87,1.03-.63,1.69-2.36,6.34-4.8,12.88-10.13,28.16-29.15,76.53-38.66,104.61-.51,7.8.49,14.95,6.38,20.88,14.76,16.12,49.69,15.25,62.97-1.31.79-.93,1.91-2.14,2.93-2.47,1.01-.33,1.99.21,3.14,1.33,1.25,1.24,2.71,2.91,4.36,4.22,10.73,8.68,26.12,10.86,39.4,7.93,5.64-1.26,11.21-3.6,15.79-7.05,3.54-2.16,6.37-8.43,10.42-3.88,4.83,5.4,11.62,9.3,18.71,11.17,13.55,3.67,29,1.73,40.44-6.4,4.36-3.2,7.76-.27,11.74,2.02,13.24,7.03,30.46,7.15,43.88.55,3.07-1.48,5.93-3.58,8.41-5.72.99-.8,1.91-1.4,2.8-1.61,2.19-.57,4.11,1.38,5.76,2.72,7.01,5.93,17.69,9.63,29.42,9.41,11.42.05,24.95-5.1,31.2-13.11,1.14-1.13,2.18-3.17,3.84-3.07,1.15.17,2.43,1.95,3.28,3.05,6.41,8.44,19.1,14.14,33.53,13.9,18.83-.12,38.95-11.38,36.56-31.66v-.09Z"/>
    <g class="cls-5">
      <line class="cls-1" x1="149.78" y1="104.51" x2="127.71" y2="250.75"/>
      <line class="cls-1" x1="196.98" y1="228" x2="201.28" y2="92.3"/>
      <line class="cls-1" x1="261.16" y1="247.78" x2="258.27" y2="104.71"/>
      <line class="cls-1" x1="329.32" y1="250.23" x2="315.83" y2="94.68"/>
      <line class="cls-1" x1="399" y1="246.06" x2="377.24" y2="102.35"/>
    </g>
  </g>
  <path class="cls-3" d="M228.76,403.23c-22.52.44-60.44.07-83.45.14-.9-.05-.83-.49-.86-1.21,0-10.46-.01-112.47,0-121.29-.02-.75.3-.94.96-.95,1.42-.05,5.68-.01,11.7-.02,17.04,0,64.66,0,70.77.01,1.34-.03,1.12.73,1.13,2.02-.19,23.78.42,90.94-.24,121.29h-.02Z"/>
  <path class="cls-3" d="M399.61,341.77c-25.53.85-112.77.04-119.84.29-1.03-.09-.86-.51-.95-1.69-.04-14.76.01-38.26,0-54.27,0-1.67,0-3.24,0-4.84.02-2.8-.12-3.56.68-3.67.2-.04.47-.04.8-.05,12.01.27,110.24-.51,119.27.28.24.3.23,1.01.24,2.43,0,2.66,0,7.75,0,13.9-.15,14.33.32,34.86-.19,47.59l-.02.03Z"/>
  <path class="cls-2" d="M337.95,341.37c-.22.16-.47.22-.79.24-1.32.07-4.75.02-9.47.03-14.9,0-31.86,0-46.95,0-2.8,0-2.63.03-2.65-2.85,0-2.95,0-5.72,0-8.82,0-13.42,0-29.73,0-42.73.02-4.03-.04-6.92.04-8.12.03-.43.13-.84.57-.98,1.79-.33,4.64-.04,9.74-.13,14.61,0,31.35,0,46.15,0,.37,0,.71,0,1.02,0,2.8,0,2.63-.03,2.65,2.85,0,.91,0,1.76,0,2.75,0,15.6,0,33.97,0,49.21-.02,3.96.04,6.73-.04,7.83-.02.27-.09.5-.25.68l-.03.03Z"/>
  <path d="M64.09,407.75c-4.5-5.17-14.93-19.45-20.23-26.08-1.4-1.83-2.06-2.68-2.1-3.12,8.14-6.91,115.09-89.39,124.16-95.6,5.69,6.42,16.4,21.23,20.84,26.71,1.07,1.61,2.42,2.5,1.22,3.34-10.58,8.11-75.28,58.01-97.19,74.87-13.45,10.36-23.48,18.1-25.76,19.84-.32.22-.54.34-.9.07l-.04-.03Z"/>
  <path class="cls-4" d="M276.09,293.94c-8.76,38.79-46.73,64.89-85.98,59.2-46.43-5.95-77.34-53.98-63.6-98.64,7.91-27.58,31.88-49.06,60.05-54.12,54.14-10.31,102.21,39.34,89.57,93.35l-.05.2Z"/>
</svg>