<svg width="496" height="624" viewBox="0 0 496 624" fill="none" xmlns="http://www.w3.org/2000/svg">
<rect width="496" height="624" rx="15" fill="black"/>
<path d="M331.022 347.267H307.644V370.644H331.022M331.022 300.511H307.644V323.889H331.022M354.4 394.022H260.889V370.644H284.267V347.267H260.889V323.889H284.267V300.511H260.889V277.133H354.4M237.511 253.756H214.133V230.378H237.511M237.511 300.511H214.133V277.133H237.511M237.511 347.267H214.133V323.889H237.511M237.511 394.022H214.133V370.644H237.511M190.756 253.756H167.378V230.378H190.756M190.756 300.511H167.378V277.133H190.756M190.756 347.267H167.378V323.889H190.756M190.756 394.022H167.378V370.644H190.756M260.889 253.756V207H144V417.4H377.778V253.756H260.889Z" fill="white"/>
</svg>
