<?xml version="1.0" encoding="UTF-8"?>
<svg id="Une_vision_de_l_entreprise" data-name="Une vision de l&amp;apos;entreprise" xmlns="http://www.w3.org/2000/svg" xmlns:xlink="http://www.w3.org/1999/xlink" viewBox="0 0 512 512">
  <defs>
    <style>
      .cls-1 {
        fill: url(#Dégradé_sans_nom_51-3);
      }

      .cls-1, .cls-2, .cls-3, .cls-4 {
        stroke: #000;
        stroke-linejoin: round;
        stroke-width: 4px;
      }

      .cls-2 {
        fill: url(#Dégradé_sans_nom_51-2);
      }

      .cls-3 {
        fill: #f5f5f7;
      }

      .cls-4 {
        fill: url(#Dégradé_sans_nom_51);
      }
    </style>
    <linearGradient id="Dégradé_sans_nom_51" data-name="Dégradé sans nom 51" x1="360.03" y1="477.85" x2="360.18" y2="379.9" gradientUnits="userSpaceOnUse">
      <stop offset="0" stop-color="#e6332a"/>
      <stop offset=".8" stop-color="#f28e16"/>
    </linearGradient>
    <linearGradient id="Dégradé_sans_nom_51-2" data-name="Dégradé sans nom 51" x1="64.93" y1="325.84" x2="64.93" y2="220.41" xlink:href="#Dégradé_sans_nom_51"/>
    <linearGradient id="Dégradé_sans_nom_51-3" data-name="Dégradé sans nom 51" x1="341.85" y1="118.15" x2="341.85" y2="33.93" xlink:href="#Dégradé_sans_nom_51"/>
  </defs>
  <path class="cls-3" d="M374.17,434.96c-58.55,38.17-137.97,42.79-201.8,15.66-7.76-3.27-15.35-7.03-22.53-11.09-3.05-1.73-4.98-2.73-7.61-.74-5.5,4.11-18.77,14.27-23.81,18.05-.72.44-1.5,1.31-1.72.11-2.26-16.3-15.41-85.98-15.27-94.43,6.12,2.18,66.89,18.46,86.84,25.68,1.62.65,11.9,3.16,10.7,4.2-4.62,3.65-16.52,15.75-21.49,19.62-2.52,1.97-1.99,3.08,1.21,4.6,17.44,8.45,36.42,14.02,55.69,16.52,35.7,4.69,73.22-1.21,105.51-17.23,2.77-1.48,5.62-2.65,8.03-.67,5.13,3.49,18.55,12.8,24.32,16.78,1,.73,2.63,1.59,1.98,2.88l-.05.07Z"/>
  <path class="cls-3" d="M486.59,301.98c-5.53,5.71-66.09,54.24-74.81,60.7-3.37-19.84-7.18-45.67-10.56-66.59-1.99-12.7-3.2-20.32-4.32-27.46-.49-1.94,1.4-.74,2.43-.46,4.78,1.75,17.15,6.74,23.31,8.9,3.73,1.14,3.68-2.49,4.38-5.94,1.25-7.64,1.98-15.42,2.14-23.39,1.62-65.94-37.02-125.37-93.34-152.33-2.18-1.09-3.75-1.95-4.4-3.35-.43-.89-.53-2.13-.54-3.23,0-6.41,0-20.89,0-27.29,0-.88.07-1.82.37-2.48.65-1.83,4.84.27,6.75.96,85.25,32.66,140.35,129.88,120.67,222.86-.77,4.31-2.09,7.26,1.85,8.82,7.52,3.12,20.38,7.6,26.04,10.25l.03.03Z"/>
  <path class="cls-3" d="M254.4,73.06c-4.76,4.45-56.28,45.69-70.96,57.8-1.01.82-1.85,1.5-2.46,2-.6.4-1.08,1.15-1.51.6-1.3-5.37-2.67-16.65-3.93-23.79-.16-.99-.41-2.09-.9-2.79-1.4-1.51-3.11-.16-5.24.72-55.22,27.2-93,85.98-91.65,151.16.12,7.37.74,14.61,1.77,21.63.64,4.1.82,6.31-2.24,8.32-5.19,3.64-17.77,12.39-22.97,15.99-3.46,2.51-3.92-.52-4.86-4.66-2.62-11.61-4.24-23.63-4.74-35.93-4.16-86.25,49.2-161.31,123.51-193.27.99-1.19.75-2.9.54-4.41-1.01-6.53-3.21-20.45-3.98-25.43-.09-.79-.23-1.41-.23-2.05,0-.31.06-.48.18-.55,16.81,6.02,81.93,31.41,89.66,34.64v.02Z"/>
  <path d="M362,265.06c1.05-4.05.33-8.31.53-12.46-.03-1.89.1-3.93-.58-5.68-.48-1.29-1.85-2.05-3.26-2.4-4.78-1.19-15.02-3.51-20.3-4.78-3.84-.56-5.82-3.68-7.05-7.08-1.61-3.87-2.95-7.12-4.46-10.76-1.23-3.24-3.58-7.23-2.22-10.47,1.91-4.08,4.75-7.84,7.14-11.93,1.28-2.05,2.52-4.05,3.56-5.73,1.76-2.91,3.08-4.44,1.61-6.99-2.3-3.19-5.35-5.65-8.04-8.5-1.36-1.31-2.7-2.85-4.43-3.61-2.27-.9-3.83.54-7.06,2.47-2.34,1.45-4.72,2.93-7.08,4.4-3.79,2.04-7.84,5.7-11.52,6.2-2.38.17-4.74-1.02-6.96-1.89-4.85-2.04-9.22-3.76-14.08-5.87-3.32-1.34-4.95-3.35-5.58-6.57-1.14-4.78-2.59-11.11-3.78-16.15-1.38-7.24-2.36-7.94-9.04-7.8-3.83.09-7.71-.28-11.56.29-.82.14-1.78.64-2.31,1.35-1.67,2.78-2.11,7.62-3.17,11.34-4.35,19.22-2.12,14.66-19.76,22.38-3.42,1.25-7.72,3.93-11.17,2.51-4.92-2.41-10.19-6.22-15.16-9.14-2.47-1.43-5.76-3.95-7.41-3.8-2.15.04-3.68,1.87-5.17,3.25-2.07,2.09-3.8,3.78-5.92,5.92-1.5,1.6-3.56,3.28-3.35,5.68.14,1.34,1.18,2.84,2.46,4.92,2.25,3.61,5.2,8.38,7.48,12.03,3.44,5.13,4.51,7.35,1.86,13.04-1.88,4.56-3.4,8.22-5.26,12.72-1.27,3.19-2.75,6.75-6.44,7.55-5.71,1.46-15.75,3.67-21.03,4.98-.88.23-1.7.54-2.37,1.05-1.21.96-1.48,2.48-1.58,3.99-.12,3.67-.05,6.92-.07,10.59-.07,3.38.18,6.77,4.01,7.43,4.85,1.19,14.91,3.48,20.12,4.73,2.5.53,4.54,1.77,5.68,4.13,2.82,6.01,5.06,11.96,7.55,17.96,1.29,3.13,1.23,5.59-.5,8.25-1.86,3.08-4.1,6.59-6.14,9.9-8.53,13.36-7.53,10.42,2.99,21.35,5.71,6.34,7.24,3.38,13.98-.61,3.31-2.05,7.34-4.57,10.44-6.49,2.26-1.43,3.87-2.38,5.56-2.49,2.38-.17,4.74,1.02,6.96,1.89,4.25,1.76,7.72,3.2,12,4.97,2.74,1.11,5.91,2.42,6.91,5.09,1.1,2.93,1.4,5.45,2.31,8.99.74,3.16,1.49,6.39,2.22,9.53,1.17,5.63,1.68,7.92,7.12,7.78,4.49-.08,8.99.33,13.48-.28,3.02-.75,3.17-2.97,4-6.34,1.22-5.24,2.72-11.67,3.95-16.92.52-2.27,1.22-4.32,3.18-5.6,5.5-3.11,12.72-5.45,18.71-8.09,5.97-2.91,9.38,1.1,14.48,4.01,2.82,1.75,5.73,3.56,8.54,5.31,2.7,1.64,4.52,3.01,6.12,2.99,2.15-.04,3.68-1.87,5.17-3.25,2.08-2.09,3.8-3.78,5.92-5.92,1.5-1.6,3.56-3.28,3.35-5.68-.84-3.26-4.12-7.22-6.07-10.73-1.33-2.14-2.68-4.31-3.86-6.21-2.01-3.32-4.32-6.04-3.03-9.82,1.91-5.59,4.29-10.49,6.43-15.93.96-2.17,1.78-4.65,3.62-6.17,1.14-.94,2.65-1.37,4.11-1.73,5.31-1.26,15.01-3.48,19.74-4.63,1.44-.36,2.85-.94,3.43-2.35l.05-.12ZM258.33,293.99c-42.85,1.8-56.19-55.82-16.94-73.13,15.92-6.97,36.28-1.03,45.9,13.44,16.82,23.89.53,57.86-28.75,59.67h-.2Z"/>
  <path class="cls-4" d="M409.07,430.95c.11,25.08-19.62,46.64-44.61,48.67-27.48,2.64-52.21-18.93-53.25-46.48-1.6-27.88,21.92-52.12,49.94-51.23,26.07.15,48.24,22.76,47.92,48.84v.2Z"/>
  <path class="cls-2" d="M64.92,226.07c-11.86,19.74-50.23,86.76-52.62,90.76-.11.24-.11.37.02.44,2.51.23,4.71.02,8.76.09,24.11,0,90.14.02,96.01-.01.97-.05.46-.43,0-1.37-14.79-25.34-37.99-66.23-52.16-89.91h-.02Z"/>
  <path class="cls-1" d="M383.73,116.74c-.21.14-.44.19-.73.19-1.39.03-5.31,0-10.81.01-21.6-.01-47.14,0-69.17,0-.31,0-.6,0-.86,0-2.62-.02-2.4.2-2.41-2.41,0-.75,0-1.45,0-2.27,0-20.95,0-44.66,0-65.35.01-6.75-.02-11.64.02-13.22,0-.3.05-.53.21-.73.2-.15.44-.2.73-.21,1.58-.04,6.47,0,13.22-.02,16.98,0,37.34,0,54.7,0,4.52,0,8.6,0,12.92,0,2.62.02,2.4-.2,2.41,2.41,0,.26,0,.55,0,.86.01,22.02,0,47.58,0,69.17,0,5.5.02,9.42-.01,10.81,0,.29-.04.54-.19.73l-.02.02Z"/>
</svg>