<?xml version="1.0" encoding="UTF-8"?>
<svg id="Gestion_des_tickets" data-name="Gestion des tickets" xmlns="http://www.w3.org/2000/svg" xmlns:xlink="http://www.w3.org/1999/xlink" viewBox="0 0 512 512">
  <defs>
    <style>
      .cls-1, .cls-2 {
        stroke-width: 4px;
      }

      .cls-1, .cls-2, .cls-3 {
        stroke: #000;
      }

      .cls-1, .cls-2, .cls-3, .cls-4 {
        stroke-linecap: round;
        stroke-linejoin: round;
      }

      .cls-1, .cls-3, .cls-4 {
        fill: none;
      }

      .cls-2 {
        fill: url(#Dégradé_sans_nom_52);
      }

      .cls-3 {
        stroke-width: 8px;
      }

      .cls-4 {
        stroke: #fff;
      }

      .cls-5 {
        fill: #f5f5f5;
      }
    </style>
    <linearGradient id="Dégradé_sans_nom_52" data-name="Dégradé sans nom 52" x1="391.45" y1="258.85" x2="391.45" y2="153.78" gradientUnits="userSpaceOnUse">
      <stop offset=".15" stop-color="#e6332a"/>
      <stop offset=".55" stop-color="#f28e16"/>
    </linearGradient>
  </defs>
  <path class="cls-1" d="M118.27,142.67c4.79,0,107.35,0,112.14,0"/>
  <g>
    <path class="cls-5" d="M267.78,205.67c41.14,1.82,83.85-2.53,123.52,1.54-.03,44.52-1.51,88.49-1.65,132.73.1,13.06-1.12,26.32-.04,37.31,3.88.5,8.92-6.93,12.89-4.07,5.78,2.84,15.24,8.1,21.26,10.8,3.46-.76,9.15-5.18,15.6-8.3,2.56-1.42,4.66-2.59,5.6-3.1,1.61-1.05.68.88.92,1.79-.49,8.51.77,37.64-1.44,53.53-3.01,11.45-14.64,16.84-24.35,18.78-2.6-.67-48.66.8-63.86.35,10.7-.12,22.31-.25,33.86-.23-12.58-.44-46.78.31-67.28,0-47.83,0-103.92,0-107.4,0-7.24-2.63-18.59-9.13-22.41-17.18-2.43-6.03-.43-115.33-1.04-147.72.27-2.05-8.29-1.06-10.36-1.56-13.91-.55-29.57-.68-43.83-1.05-15.27-1.35-35.28,3.4-45.25-11.19-2.61-3.51-3.62-7.71-3.74-12.02-2.73-55.23.45-110.77-1.88-166.04.17-.04.71-.5,1.96-.13,7.22,2.85,13.6,6.78,20.33,9.41,7.4.98,12.56-7.31,19.4-9,9.85-2.7,17.04,6.37,26.38,8.35,6.58.47,13.41-6.18,20.14-8.22,7.14-2.88,12.81,5.67,18.44,8.2,10.13,3.09,20.3-8.11,30.01-9.1,8.6,1.46,15.59,8.03,24.04,9.18,7.66,0,13.73-6.72,20.52-9.51,3.15,3.76-3.45,109.72-.45,116.45h.1Z"/>
    <path d="M193.18,240.18c.44-9.16.57-17.77-3.65-25.62-1.8-2.79-4.02-6.54-7.69-7.04-9.89-.92-20.18-3.35-28.55,2.87-6.1,4.89-9.31,8.32-9.68,16.54-.51,5.95-2.46,12.22-2.65,18.1.44,10.43-2.33,21.87-11.31,28.16-1.53,1.17-3.11,2.18-4.69,3.02-1.33.69-2.62,1.24-2.56,1.54,0,.12.19.2.53.26.79.12,1.73.14,2.57.17,3.71.15,9.21.23,12.52.31,11.62.24,26.78.55,37.75.79,3.85.09,9.29.4,13.35.6.86.05.85.08.02.12-.69.08-2.71.07-3.29.11,1.04-.01,2.81.09,4.33-.13,1.84-.18,2.16-1.99,2.12-3.6.38-11.86.33-24.24.86-36v-.21Z"/>
    <path class="cls-4" d="M266.87,204.69h0"/>
    <path class="cls-1" d="M388.97,376.93c.56-56.74,2.45-113.3,1.76-170.02-.99-1.24-2.92-1.26-4.31-1.23-.11,0-.32,0-.14,0,.82.02,3.33,0,3.79,0,.15,0,.03,0-.07,0-.1,0-.24,0-.43,0-40.48-.35-80.92,1.34-121.54-.62-.18-.14-.21-.3-.07-.33-1.08.02-1.15-2.01-1.21-3.09-.22-37.45,2.37-74.91,1.53-112.54-7.13,1.94-14.02,10.79-22.15,9.15-8.35-1.34-15.71-9.25-24.56-8.77-8.73,2.41-17.49,10.49-27.08,9.34-4.88-2.4-8.32-7.15-13.43-9.93-6.73-3.44-18.22,8.14-24.72,9.44-6.47-1.69-14.92-9.15-20.37-9.78-9.73-1.48-16.37,10.22-25.71,10.7-7.98-1.58-14.86-8.7-23.37-9.5,1.81,54.53-.8,110.43,1.66,165.29.15,4.84,1.41,9.44,4.44,13.38,6.79,9.91,19.08,10.37,29.95,10.43,12.06.46,24.11.58,36.15.81,9.7.2,19.45.43,29.1,1.02,2.48,0,3.74,1.81,3.6,4.21,2.1,211.55-32.71,156.55,199.66,162.12"/>
    <path class="cls-1" d="M193.02,230.98c-.43,14.31-.87,32.28-1.27,46.23,0,.32.23,4.41.22,4.68-.06,2.41-.3-1.86-1.4-1.82-17.1-.35-74.94-1.61-78.8-1.68,2.43.01,9.35-1.04,13.51-2.91,10.38-4.01,15.99-13.3,15.97-24.52,1.39-22.09,2-43,25.33-44.61,6.44-.39,12.06.18,17.38,3.5,7.78,4.42,9.81,15.19,9.06,21.08v.04Z"/>
    <path class="cls-1" d="M444.56,372.55c-5.37,2.81-12.78,7.11-18.43,10.18-.56.32-1.08.6-1.6.89-1.89,1.05-1.61,1.02-3.55.02-6.82-3.42-15.04-7.96-21.69-11.06-.49-.06-1.08.38-2.58,1.19-5.05,2.8-10.97,6.09-16.14,8.96-.57.32-1.08.6-1.6.89-1.93,1.08-1.6,1-3.6.09-7.32-3.43-16.4-7.69-23.46-10.97-.78-.34-.96-.19-2.24.46-5.87,2.99-17.89,9.21-21.64,11.07-.45.19-.69.19-1.15-.02-3.23-1.67-7.45-3.98-11.07-5.9-3.14-1.68-6.23-3.33-9.3-4.97-2.06-1.3-2.2-.74-4.19.38-5.55,3.2-11.79,6.81-17.23,9.95-1.37.78-1.46.88-2.47.4-3.78-1.64-19.57-9.77-23.84-11.26-.62.22-.48,2.1-.51,2.96-.08,15.28.11,30.64.03,45.91-1.69,13.94-17.38,23.21-30.37,25.62-2.27.5-4.94.16-7.03.23-.76.14-.4.25.92.35,32.23,1.21,167.96-.6,197.27-.8,2.19-.41,7.57-1.94,10.58-3.59,9.01-4.18,14.99-12.11,14.46-23.11.36-13.41.76-36.78.43-47.88h-.03Z"/>
    <path class="cls-1" d="M169.99,206.23c4.41,0,99.46-.89,104.22-.89"/>
    <path class="cls-1" d="M120.17,167.64h118.83"/>
    <path class="cls-1" d="M120.17,142.67c4.79,0,114.04,0,118.83,0"/>
    <path class="cls-1" d="M230.41,247.25c4.79,0,114.04,0,118.83,0"/>
    <path class="cls-1" d="M230.41,276.23c4.79,0,114.04,0,118.83,0"/>
    <path class="cls-1" d="M230.41,305.2h118.83"/>
    <path class="cls-1" d="M230.41,335.59h118.83"/>
    <path class="cls-1" d="M230.41,365.99h118.83"/>
  </g>
  <path class="cls-2" d="M443.97,206.42c.29,27.86-23.07,51.86-50.83,52.38-27.84,1.22-52.53-21.25-54.05-48.93-2.44-31.74,25.23-58.91,56.96-55.85,26.85,2.21,47.99,25.14,47.93,52.21v.2Z"/>
  <path class="cls-3" d="M365.78,213.21c4.66,4.04,12.43,10.88,16.89,14.69,2.4-1.04,31.74-34.73,34.61-37.35"/>
</svg>