<svg width="496" height="624" viewBox="0 0 496 624" fill="none" xmlns="http://www.w3.org/2000/svg">
<rect width="496" height="624" rx="15" fill="black"/>
<path d="M346.605 333.305C343.876 331.205 340.699 329.763 337.323 329.09C333.946 328.418 330.46 328.533 327.135 329.427L288.781 338.245C289.674 334.476 289.701 330.553 288.862 326.772C288.023 322.99 286.338 319.448 283.935 316.41C281.532 313.372 278.473 310.917 274.986 309.23C271.499 307.542 267.676 306.666 263.802 306.666H217.914C214.06 306.657 210.243 307.411 206.682 308.885C203.122 310.359 199.888 312.524 197.17 315.255L176.435 336H150.135C146.246 336 142.515 337.545 139.765 340.295C137.014 343.046 135.469 346.776 135.469 350.666V387.333C135.469 391.223 137.014 394.953 139.765 397.704C142.515 400.454 146.246 402 150.135 402H245.469C246.068 401.999 246.666 401.925 247.247 401.78L305.914 387.113C306.288 387.024 306.653 386.901 307.005 386.746L342.635 371.585L343.039 371.401C346.463 369.69 349.396 367.135 351.56 363.978C353.724 360.82 355.049 357.163 355.409 353.352C355.769 349.541 355.154 345.701 353.62 342.194C352.086 338.686 349.684 335.627 346.641 333.305H346.605ZM150.135 350.666H172.135V387.333H150.135V350.666ZM336.613 358.192L301.78 373.024L244.552 387.333H186.802V346.367L207.546 325.632C208.903 324.264 210.519 323.18 212.298 322.442C214.078 321.704 215.987 321.327 217.914 321.333H263.802C266.719 321.333 269.517 322.492 271.58 324.555C273.643 326.618 274.802 329.415 274.802 332.333C274.802 335.25 273.643 338.048 271.58 340.111C269.517 342.174 266.719 343.333 263.802 343.333H238.135C236.19 343.333 234.325 344.105 232.95 345.481C231.575 346.856 230.802 348.721 230.802 350.666C230.802 352.611 231.575 354.476 232.95 355.852C234.325 357.227 236.19 358 238.135 358H267.469C268.021 357.998 268.571 357.937 269.11 357.816L330.526 343.69L330.81 343.617C332.685 343.097 334.686 343.288 336.429 344.154C338.171 345.02 339.531 346.5 340.248 348.309C340.965 350.118 340.987 352.128 340.311 353.953C339.635 355.777 338.308 357.287 336.585 358.192H336.613ZM285.802 292C287.614 292.002 289.423 291.854 291.21 291.56C293.221 297.532 296.9 302.804 301.812 306.752C306.724 310.7 312.664 313.159 318.929 313.838C325.194 314.517 331.523 313.388 337.166 310.585C342.81 307.781 347.534 303.42 350.777 298.017C354.021 292.615 355.651 286.396 355.472 280.097C355.294 273.797 353.316 267.681 349.771 262.47C346.227 257.259 341.265 253.172 335.471 250.693C329.678 248.213 323.295 247.444 317.079 248.476C315.143 242.722 311.657 237.613 307.004 233.712C302.352 229.811 296.713 227.269 290.709 226.367C284.706 225.464 278.569 226.234 272.975 228.594C267.381 230.954 262.546 234.811 259.003 239.742C255.46 244.672 253.346 250.484 252.893 256.539C252.441 262.593 253.667 268.655 256.438 274.058C259.208 279.46 263.415 283.994 268.596 287.159C273.777 290.325 279.731 292 285.802 292ZM340.802 281C340.802 284.626 339.727 288.17 337.712 291.185C335.698 294.2 332.835 296.55 329.485 297.937C326.135 299.325 322.448 299.688 318.892 298.981C315.336 298.273 312.069 296.527 309.505 293.963C306.941 291.399 305.195 288.132 304.488 284.576C303.78 281.02 304.143 277.334 305.531 273.984C306.919 270.634 309.268 267.77 312.283 265.756C315.298 263.741 318.843 262.666 322.469 262.666C327.331 262.666 331.994 264.598 335.432 268.036C338.871 271.474 340.802 276.137 340.802 281ZM285.802 240.666C289.802 240.668 293.691 241.978 296.876 244.396C300.062 246.814 302.37 250.207 303.448 254.059C299.692 256.701 296.529 260.099 294.161 264.034C291.794 267.969 290.274 272.355 289.698 276.911C288.418 277.188 287.112 277.329 285.802 277.333C280.94 277.333 276.277 275.401 272.838 271.963C269.4 268.525 267.469 263.862 267.469 259C267.469 254.137 269.4 249.474 272.838 246.036C276.277 242.598 280.94 240.666 285.802 240.666Z" fill="white"/>
</svg>
