<?xml version="1.0" encoding="UTF-8"?>
<svg id="Gestion_base_de_données" data-name="Gestion base de données" xmlns="http://www.w3.org/2000/svg" xmlns:xlink="http://www.w3.org/1999/xlink" viewBox="0 0 512 512">
  <defs>
    <style>
      .cls-1 {
        fill: none;
      }

      .cls-1, .cls-2, .cls-3, .cls-4, .cls-5, .cls-6, .cls-7, .cls-8 {
        stroke: #000;
        stroke-linecap: round;
        stroke-linejoin: round;
        stroke-width: 4px;
      }

      .cls-2 {
        fill: url(#Dégradé_sans_nom_52);
      }

      .cls-4 {
        fill: url(#Dégradé_sans_nom_52-2);
      }

      .cls-5 {
        fill: url(#Dégradé_sans_nom_52-3);
      }

      .cls-6 {
        fill: url(#Dégradé_sans_nom_52-4);
      }

      .cls-7 {
        fill: url(#Dégradé_sans_nom_52-5);
      }

      .cls-8 {
        fill: #fff;
      }
    </style>
    <linearGradient id="Dégradé_sans_nom_52" data-name="Dégradé sans nom 52" x1="257.78" y1="346.71" x2="257.78" y2="292.39" gradientUnits="userSpaceOnUse">
      <stop offset=".15" stop-color="#e6332a"/>
      <stop offset=".55" stop-color="#f28e16"/>
    </linearGradient>
    <linearGradient id="Dégradé_sans_nom_52-2" data-name="Dégradé sans nom 52" x1="282.88" y1="346.73" x2="282.88" y2="276.07" xlink:href="#Dégradé_sans_nom_52"/>
    <linearGradient id="Dégradé_sans_nom_52-3" data-name="Dégradé sans nom 52" x1="307.95" y1="346.7" x2="307.95" y2="263.41" xlink:href="#Dégradé_sans_nom_52"/>
    <linearGradient id="Dégradé_sans_nom_52-4" data-name="Dégradé sans nom 52" x1="333.08" y1="346.73" x2="333.08" y2="242.03" xlink:href="#Dégradé_sans_nom_52"/>
    <linearGradient id="Dégradé_sans_nom_52-5" data-name="Dégradé sans nom 52" x1="383.02" y1="148.76" x2="383.02" y2="116.93" xlink:href="#Dégradé_sans_nom_52"/>
  </defs>
  <path class="cls-8" d="M163.56,448.28s-.03,0-.05,0c-6.97-.02-12.63-5.67-12.63-12.64-.04-61.08-.25-318.38-.28-358.04,0-.22,0-.48,0-.76,0-5.52,4.46-10.01,9.98-10.03,9.59-.03,23.08-.1,35.54-.23,44.77-.46,181.43-.13,219.73-.03,5.56.02,10.04,4.55,10.01,10.1,0,.8,0,1.35,0,1.45,0,19.82,0,16.87,0,18.72.14,64.36,0,242.49-.06,336.64,0,8.32-6.75,15.06-15.08,15.05-46.7-.04-186.75-.14-247.15-.24Z"/>
  <path d="M244.54,275.8c1.13-3.14.42-6.7.6-10.03-.02-2.19-.27-4.55-2.61-5.52-4.2-1.52-10.22-2.46-14.63-3.65-1.81-.46-3.67-1.09-4.9-2.51-2.08-2.57-2.97-6.06-4.35-9.06-1.31-3.71-3.95-7.38-2.44-11.29,2.02-4.32,5.37-8.86,7.77-12.99.92-1.5,1.5-2.72,1.52-3.81.05-1.75-1.22-3.1-2.36-4.3-1.65-1.66-3.37-3.43-5.03-4.99-3.25-3.22-5.71-1.52-9.76,1.1-3.97,2.13-8.39,6.11-12.64,6.83-4.16.04-8.24-2.68-12.26-4.08-3.04-1.28-6.62-2.4-7.85-5.48-1.25-3.16-1.87-7.31-2.79-10.84-1.03-3.73-1.1-7.8-4.21-8.63-2.99-.68-6.2-.25-9.29-.35-3.63-.13-5.64,1.21-6.33,5.14-.63,2.67-1.41,6.02-2.06,8.81-.86,3.49-1.26,7.42-4.7,9.19-2.71,1.47-6.21,2.68-9.16,3.97-3.05,1.2-6.46,3.13-9.61,1.87-3.12-1.28-6.44-3.78-9.57-5.61-9.44-6.49-9.02-3.68-16.13,3.06-2.89,2.71-3.04,5.01-.61,8.5,1.57,2.54,3.6,5.8,5.21,8.38,1.54,2.51,3.3,4.97,2.68,7.96-.58,2.78-2.31,6.15-3.42,9.06-1.24,2.7-2.02,5.88-4.16,7.99-1,.94-2.32,1.47-3.66,1.85-4.28,1.22-10.91,2.3-15.29,3.8-3.59,1.45-2.61,5.82-2.77,8.98.09,3.01-.65,7.14,2.77,8.47,3.87,1.36,10.09,2.42,14.48,3.58,1.76.44,3.57,1.05,4.8,2.4,2.17,2.57,3.05,6.13,4.46,9.17,1.09,2.89,2.7,5.67,2.92,8.63.06,2.88-1.73,5.02-3.2,7.52-1.58,2.54-3.54,5.68-5.04,8.12-2.27,3.25-1.83,5.67.84,8.12,8.87,9.27,7.83,8.2,18.65,1.49,2.86-1.62,5.85-4.15,8.77-4.43,3.02-.17,5.72,1.48,8.73,2.62,1.92.8,3.87,1.59,5.79,2.4,2.61,1.1,4.57,2.15,5.6,4.54,1.25,3.16,1.87,7.31,2.79,10.84,1.14,4.81,1.4,9.15,6.42,8.95,2.28.07,4.75.03,7.09.03,1.7-.04,3.62-.11,4.8-1.48,1.52-1.94,1.8-5.3,2.55-8.02.85-3.29,1.41-6.9,2.53-10,1.57-4.08,6.19-4.85,9.85-6.58,1.87-.77,3.75-1.57,5.63-2.32,2.69-1.11,5.02-1.47,7.49-.19,2.95,1.53,6.63,4.06,9.7,5.89,4.09,2.62,6.67,4.57,9.98,1.24,7.9-8.18,10.15-7.04,3.09-17.6-2.05-3.98-6.05-7.55-5.34-12.23.58-2.78,2.31-6.15,3.42-9.06,1.47-3.12,2.24-7.1,5.44-8.9,4.49-1.95,11.13-2.81,15.9-4.15,1.5-.38,3.12-.9,3.87-2.31l.06-.11ZM162.33,298.49c-15.15.07-28.26-11.96-29.38-27.11-1.5-16.25,11.13-31.02,27.42-31.97,16.93-1.49,32.3,13.08,31.63,30.12-.08,15.75-13.7,29.13-29.47,28.96h-.2Z"/>
  <path class="cls-3" d="M190.88,122.52c7.24,0,111.67,0,119.25,0"/>
  <path class="cls-3" d="M190.24,148.47h119.25"/>
  <path class="cls-3" d="M190.88,174.42h119.25"/>
  <path class="cls-3" d="M190.89,392.31h190.95"/>
  <path class="cls-3" d="M191.05,414.11c9.16,0,182.14,0,190.95,0"/>
  <g>
    <path class="cls-2" d="M269.78,346.44c-.35.38-3.88.19-5.89.24-5.48-.08-12.79.17-17.66-.12-.9-.16-.97-.65-1.01-1.45-.03-6.53,0-42.82,0-50.67,0-1.89.14-2.05,3.31-2.06,4.66,0,13.2,0,17.57,0,1.9.13,3.21-.32,4.05.61.49,6.21.09,39.95.15,52.6-.04.37-.13.64-.45.81l-.05.03Z"/>
    <path class="cls-4" d="M294.87,346.49c-5.13.48-16.03.07-20.85.2-2.47-.13-3.78.45-3.7-1.73,0-8.51,0-57.19,0-66.78,0-1.81-.1-2.07,2.7-2.09,4.74,0,14.87-.02,19.07,0,2.04.11,3.39-.37,3.35,1.56,0,7.32.04,52.18-.02,68.01-.04.39-.12.67-.49.83l-.05.02Z"/>
    <path class="cls-5" d="M319.96,346.5c-.39.37-4.31.08-6.62.18-4.95,0-11.67,0-14.85,0-1.52-.01-2.33-.06-2.7-.31-1-7.16-.03-66.82-.36-80.16.11-1.88-.6-2.87,2.31-2.79,4.72-.02,15.92-.03,19.92-.01,1.94.09,2.94-.21,2.89,1.5,0,7.99.04,62.21-.02,80.79-.04.38-.13.63-.52.78l-.05.02Z"/>
    <path class="cls-6" d="M345.05,346.53c-5.67.42-15.72.02-21.23.15-1.79-.01-2.66-.05-2.99-.33-.64-9.53-.27-93.57-.13-103.84.25-.47,1.3-.47,4.01-.48,4.89,0,14.71-.01,18.33,0,1.62.1,2.62-.21,2.63,1.22,0,10.2.01,62.17,0,80.97,0,10.97.02,19.24-.01,21.49-.03.41-.12.65-.56.78l-.06.02Z"/>
  </g>
  <g>
    <path class="cls-1" d="M229.38,284.36c6.07-3.95,91.7-59.59,98.06-63.72"/>
    <path d="M336.36,214.58c-1.23-.44-5.35.42-7.36.47-1.93.21-3.79.31-5.36.56-.28.07-.43.16-.44.3.01.28.32.61.54.88,1.66,1.82,5.4,6.07,7.22,7.94.79.78,1.11-.1,1.52-.94.32-.7.75-1.65,1.21-2.67.71-1.86,2.59-5.06,2.7-6.48l-.03-.05Z"/>
  </g>
  <path class="cls-8" d="M367.28,148.02c.4.39,1.07.38,1.72.42,5.37.21,21.21-.34,28.58.23,3.67.88.28,9.71-.83,12.53-14.16,31.22-60.5,22.99-62.68-11.31-.9-15.22,10.29-29.56,25.11-32.87,3.11-.6,11.64-2.27,12.18,1.07-.44,7.24-3.64,22.76-4.25,28.12-.07.64-.19,1.3.14,1.76l.04.04Z"/>
  <path class="cls-7" d="M366.87,148.33c-.46-1.71.41-3.53.88-7.31.5-2.96,1.1-6.53,1.69-10,.83-4.82,1.57-9.45,2.05-11.97.2-.9.47-2.17,1.45-2.11,2.28.15,5.85,1.36,8.34,2.46,8.17,4.03,14.55,11.71,16.97,20.53.54,2.38,1.6,5.65.71,7.87-.59,1.07-2.29.92-5.03.93-3.38,0-6.52,0-10.17,0-3.43,0-6.91,0-9.78,0-3.67-.17-5.5.39-7.08-.35l-.03-.04Z"/>
</svg>