<?xml version="1.0" encoding="UTF-8"?>
<svg id="gestion_chaîne_d_approvisionnement" data-name="gestion chaîne d&amp;apos;approvisionnement" xmlns="http://www.w3.org/2000/svg" xmlns:xlink="http://www.w3.org/1999/xlink" viewBox="0 0 512 512">
  <defs>
    <style>
      .cls-1, .cls-2, .cls-3, .cls-4, .cls-5, .cls-6 {
        stroke-linejoin: round;
        stroke-width: 4px;
      }

      .cls-1, .cls-2, .cls-4, .cls-5 {
        stroke: #000;
      }

      .cls-1, .cls-3 {
        stroke-linecap: round;
      }

      .cls-1, .cls-3, .cls-6 {
        fill: none;
      }

      .cls-2 {
        fill: #fff;
      }

      .cls-3, .cls-6 {
        stroke: #fff;
      }

      .cls-7 {
        clip-path: url(#clippath);
      }

      .cls-5 {
        fill: url(#Dégradé_sans_nom_52);
      }
    </style>
    <clipPath id="clippath">
      <path d="M339.66,200.45c-.06,56.31.4,176.03-.09,226.58-3.53,26.77-82.53,34.62-118.31,26.93-19.04-3.44-47.66-11.07-49-28.52.3-14.93-.57-185.93.27-223.93,5.7,27.05,84.62,34.06,121.75,25.59,25.65-5.43,42.73-12.97,45.37-26.62v-.04Z"/>
    </clipPath>
    <linearGradient id="Dégradé_sans_nom_52" data-name="Dégradé sans nom 52" x1="255.85" y1="257.5" x2="256.45" y2="94.22" gradientUnits="userSpaceOnUse">
      <stop offset=".15" stop-color="#e6332a"/>
      <stop offset=".55" stop-color="#f28e16"/>
    </linearGradient>
  </defs>
  <g>
    <g>
      <path d="M339.66,200.45c-.06,56.31.4,176.03-.09,226.58-3.53,26.77-82.53,34.62-118.31,26.93-19.04-3.44-47.66-11.07-49-28.52.3-14.93-.57-185.93.27-223.93,5.7,27.05,84.62,34.06,121.75,25.59,25.65-5.43,42.73-12.97,45.37-26.62v-.04Z"/>
      <g class="cls-7">
        <path class="cls-6" d="M341.9,351.56c-2.5,23.99-60.14,30.84-80.84,30.88-26.76.21-50.84-2.21-73.6-12.25-8.38-4.04-16.76-9.61-17.61-18.44"/>
        <path class="cls-3" d="M342.5,273.92c-2.5,23.99-60.14,30.84-80.84,30.88-26.76.21-50.84-2.21-73.6-12.25-8.38-4.04-16.76-9.61-17.61-18.44"/>
      </g>
    </g>
    <path d="M172.26,425.63c-.02.26.08.89.06,1.14-.1.26-.04-.87-.06-1.18v.03Z"/>
    <path d="M339.74,425.6c-.02.06.05,1.49-.06,1.18-.02-.25.08-.87.06-1.14v-.03Z"/>
  </g>
  <path class="cls-5" d="M337.76,199.93c-.68,12.34-15.94,18.91-26.86,22.88-22.88,7.58-48.01,9.09-72.07,7.32-14.34-1.19-29.25-3.82-42.47-9.1-11.23-4.55-26.7-13.57-20.63-26.93,6.97-12.11,23.94-17.32,39.6-21.05,27.08-6.28,68.36-5.31,93.75,3.3,17.02,5.94,27.82,12.42,28.68,23.49v.11Z"/>
  <path class="cls-1" d="M297.31,195.51c3.34-17.63,7.74-40.95,11.23-59.41.42-2.26.81-4.29,1.22-6.44.42-2.2.27-1.97,2.63-1.99,22.05,0,48.38,0,69.72,0"/>
  <path class="cls-1" d="M214.69,193.04c-3.34-17.63-7.74-40.95-11.23-59.41-.42-2.26-.81-4.29-1.22-6.44-.42-2.2-.27-1.97-2.63-1.99-22.05,0-48.38,0-69.72,0"/>
  <path class="cls-1" d="M256,109.43c0,7.18,0,81.22,0,88.08"/>
  <path class="cls-2" d="M428.45,129.45h32.59c0,17.88-14.71,32.59-32.59,32.59s-32.59-14.71-32.59-32.59,14.71-32.59,32.59-32.59c1.72,0,3.44.14,5.15.41l-5.15,32.18Z"/>
  <path class="cls-4" d="M428.45,129.45l5.41-32.14c7.6,1.28,14.5,5.21,19.48,11.09,4.98,5.88,7.71,13.34,7.71,21.05h-32.59Z"/>
  <g>
    <rect x="224.44" y="49.84" width="63.18" height="42.74"/>
    <rect x="223.17" y="40.66" width="29.44" height="9.6"/>
    <rect class="cls-2" x="225.19" y="49.84" width="62.43" height="42.74"/>
  </g>
  <g>
    <polygon class="cls-2" points="113.34 159.65 71.13 159.65 71.13 108.57 75.07 104.14 79.34 99.87 113.34 99.87 113.34 159.65"/>
    <polygon points="71.13 109.56 76.74 104.32 82.83 99.25 83.07 109.28 71.13 109.56"/>
  </g>
</svg>