<svg width="496" height="624" viewBox="0 0 496 624" fill="none" xmlns="http://www.w3.org/2000/svg">
<rect width="496" height="624" rx="15" fill="black"/>
<path d="M204 206.167V153.758L234.508 140.792V149.508L256.3 140.792V153.867H291.167V206.167H204ZM212.717 197.45H282.45V162.583H247.583V153.649L225.792 162.366V153.867L212.717 159.642V197.45ZM243.225 188.734H251.942V171.3H243.225V188.734ZM225.792 188.734H234.508V171.3H225.792V188.734ZM260.659 188.734H269.375V171.3H260.659V188.734ZM291.167 153.867H269.375L273.734 119H286.809L291.167 153.867Z" fill="white"/>
<path d="M273.8 324.6H265.2V333.2H273.8M273.8 307.4H265.2V316H273.8M282.4 341.8H248V333.2H256.6V324.6H248V316H256.6V307.4H248V298.8H282.4M239.4 290.2H230.8V281.6H239.4M239.4 307.4H230.8V298.8H239.4M239.4 324.6H230.8V316H239.4M239.4 341.8H230.8V333.2H239.4M222.2 290.2H213.6V281.6H222.2M222.2 307.4H213.6V298.8H222.2M222.2 324.6H213.6V316H222.2M222.2 341.8H213.6V333.2H222.2M248 290.2V273H205V350.4H291V290.2H248Z" fill="white"/>
<path d="M231.124 502.08C228.729 502.08 226.68 501.229 224.976 499.525C223.272 497.821 222.419 495.77 222.416 493.372C222.413 490.975 223.267 488.926 224.976 487.225C226.686 485.524 228.735 484.67 231.124 484.664C233.513 484.659 235.564 485.512 237.276 487.225C238.989 488.937 239.841 490.986 239.832 493.372C239.823 495.758 238.972 497.809 237.276 499.525C235.581 501.24 233.53 502.092 231.124 502.08ZM274.664 502.08C272.27 502.08 270.22 501.229 268.516 499.525C266.813 497.821 265.959 495.77 265.956 493.372C265.953 490.975 266.807 488.926 268.516 487.225C270.226 485.524 272.275 484.67 274.664 484.664C277.053 484.659 279.104 485.512 280.817 487.225C282.529 488.937 283.381 490.986 283.372 493.372C283.364 495.758 282.512 497.809 280.817 499.525C279.121 501.24 277.071 502.092 274.664 502.08ZM223.287 423.708H287.509C289.178 423.708 290.448 424.453 291.319 425.942C292.189 427.431 292.226 428.936 291.427 430.457L275.971 458.323C275.172 459.774 274.103 460.899 272.762 461.697C271.421 462.495 269.95 462.894 268.351 462.894H235.914L231.124 471.602H283.372V480.31H231.124C227.859 480.31 225.391 478.878 223.722 476.013C222.053 473.148 221.981 470.299 223.505 467.466L229.383 456.799L213.708 423.708H205V415H219.151L223.287 423.708Z" fill="white"/>
</svg>
