<svg width="496" height="624" viewBox="0 0 496 624" fill="none" xmlns="http://www.w3.org/2000/svg">
<rect width="496" height="624" rx="15" fill="black"/>
<path d="M161.334 225.333C155.587 225.333 150.076 227.616 146.013 231.68C141.95 235.743 139.667 241.254 139.667 247V290.333C145.413 290.333 150.924 292.616 154.988 296.68C159.051 300.743 161.334 306.254 161.334 312C161.334 317.747 159.051 323.258 154.988 327.321C150.924 331.384 145.413 333.667 139.667 333.667V377C139.667 382.747 141.95 388.258 146.013 392.321C150.076 396.384 155.587 398.667 161.334 398.667H334.667C340.413 398.667 345.924 396.384 349.988 392.321C354.051 388.258 356.334 382.747 356.334 377V333.667C350.587 333.667 345.076 331.384 341.013 327.321C336.95 323.258 334.667 317.747 334.667 312C334.667 306.254 336.95 300.743 341.013 296.68C345.076 292.616 350.587 290.333 356.334 290.333V247C356.334 241.254 354.051 235.743 349.988 231.68C345.924 227.616 340.413 225.333 334.667 225.333H161.334ZM161.334 247H334.667V274.517C321.234 282.208 313 296.508 313 312C313 327.492 321.234 341.792 334.667 349.483V377H161.334V349.483C174.767 341.792 183 327.492 183 312C183 296.508 174.767 282.208 161.334 274.517V247Z" fill="white"/>
</svg>
