<svg width="496" height="624" viewBox="0 0 496 624" fill="none" xmlns="http://www.w3.org/2000/svg">
<rect width="496" height="624" rx="15" fill="black"/>
<path d="M247.5 399C223.032 399 202.334 395.234 185.404 387.703C168.475 380.171 160.006 370.974 160 360.111V262.889C160 252.194 168.549 243.039 185.647 235.424C202.745 227.808 223.363 224 247.5 224C271.637 224 292.258 227.808 309.363 235.424C326.467 243.039 335.013 252.194 335 262.889V360.111C335 370.968 326.532 380.165 309.596 387.703C292.66 395.241 271.961 399.006 247.5 399ZM247.5 282.576C261.921 282.576 276.424 280.509 291.007 276.374C305.59 272.238 313.773 267.825 315.556 263.132C313.773 258.433 305.632 253.977 291.133 249.764C276.634 245.551 262.09 243.444 247.5 243.444C232.755 243.444 218.294 245.512 204.119 249.647C189.944 253.782 181.719 258.277 179.444 263.132C181.713 267.993 189.938 272.449 204.119 276.5C218.301 280.551 232.761 282.576 247.5 282.576ZM247.5 330.944C254.306 330.944 260.868 330.62 267.188 329.972C273.507 329.324 279.544 328.391 285.3 327.172C291.056 325.954 296.484 324.456 301.585 322.681C306.686 320.905 311.343 318.879 315.556 316.604V287.438C311.343 289.706 306.686 291.731 301.585 293.514C296.484 295.296 291.056 296.797 285.3 298.015C279.544 299.234 273.507 300.164 267.188 300.806C260.868 301.447 254.306 301.771 247.5 301.778C240.694 301.784 234.051 301.46 227.569 300.806C221.088 300.151 214.969 299.218 209.214 298.006C203.458 296.794 198.072 295.296 193.056 293.514C188.039 291.731 183.502 289.706 179.444 287.438V316.604C183.495 318.873 188.032 320.898 193.056 322.681C198.079 324.463 203.468 325.963 209.224 327.182C214.979 328.4 221.094 329.331 227.569 329.972C234.044 330.614 240.688 330.938 247.5 330.944ZM247.5 379.556C254.954 379.556 262.531 378.988 270.231 377.854C277.931 376.72 285.018 375.223 291.493 373.363C297.968 371.502 303.396 369.396 307.778 367.043C312.159 364.69 314.752 362.299 315.556 359.868V336.049C311.343 338.317 306.686 340.343 301.585 342.125C296.484 343.907 291.056 345.408 285.3 346.626C279.544 347.845 273.507 348.775 267.188 349.417C260.868 350.058 254.306 350.382 247.5 350.389C240.694 350.395 234.051 350.071 227.569 349.417C221.088 348.762 214.969 347.829 209.214 346.617C203.458 345.405 198.072 343.907 193.056 342.125C188.039 340.343 183.502 338.317 179.444 336.049V360.111C180.255 362.542 182.808 364.891 187.106 367.16C191.403 369.428 196.789 371.496 203.264 373.363C209.739 375.229 216.869 376.726 224.653 377.854C232.437 378.982 240.053 379.549 247.5 379.556Z" fill="white"/>
</svg>
