<?xml version="1.0" encoding="UTF-8"?>
<svg id="Gestion_chaînes_de_ventes" data-name="Gestion chaînes de ventes" xmlns="http://www.w3.org/2000/svg" xmlns:xlink="http://www.w3.org/1999/xlink" viewBox="0 0 512 512">
  <defs>
    <style>
      .cls-1 {
        fill: none;
      }

      .cls-1, .cls-2, .cls-3 {
        stroke: #000;
        stroke-linecap: round;
        stroke-linejoin: round;
        stroke-width: 4px;
      }

      .cls-2 {
        fill: url(#Dégradé_sans_nom_51);
      }

      .cls-3 {
        fill: #f5f5f7;
      }
    </style>
    <linearGradient id="Dégradé_sans_nom_51" data-name="Dégradé sans nom 51" x1="382.28" y1="244.73" x2="382.46" y2="73.98" gradientUnits="userSpaceOnUse">
      <stop offset="0" stop-color="#e6332a"/>
      <stop offset=".8" stop-color="#f28e16"/>
    </linearGradient>
  </defs>
  <path d="M84.79,151.33c-7.75-.11-32.14.07-39.97.02-2.24-.02-2.22,1.33-2.26,3.63.02,3.27-.16,11.36.14,14.49.17,1.58,1.37,1.56,2.63,1.57,7.54.05,30.6-.04,37.68.01,1.3.09,1.5-.11,1.54.6.79,10.17-1.05,178.22.05,235.29.2,10.22,8.44,18.42,18.66,18.64.05,0,.09,0,.14,0,.89.06,1.82-.04,2.58-.12.31-.07.34-.19.35-.45-.08-21.46.06-108.89,0-146.75,0-42.01.02-96.51-.02-126.58-.03-.1-.09-.18-.25-.23-.24-.17-1.99-.11-2.82-.14-4.34,0-13.55,0-18.33,0h-.1Z"/>
  <path d="M106.37,425.37c-.08-8.19-.08-64.37-.04-84.88,8.99-1.01,311.51-1.33,318.78.13-.12,16.38.02,44.35.04,65.24,0,10.96-8.85,19.86-19.81,19.89-25.83.09-73.59-.49-123.62-.15-47.68-.13-144.9.34-175.35-.2v-.02Z"/>
  <path class="cls-3" d="M280.41,339.55c-42.18.3-140.09.08-173.63.13-.46-.02-.44-.28-.46-.7.09-6.42-.07-76.46,0-99.92,0-10.04-.02-17.03.01-18.43.02-.36.09-.51.51-.51,8.47.83,164.13-1.6,173.67.83-.05,31.64.15,88.12-.09,118.59h0Z"/>
  <path class="cls-3" d="M445.23,334.62c-.02,2.73-2.23,4.95-4.97,4.96-41.18.24-129.21.03-157.75.1-.81,0-1.34.01-1.63-.02-.4-.05-.35-.34-.37-.72.08-6.57-.06-76.04,0-99.67,0-10-.01-17.05,0-18.59.01-.34.04-.56.44-.57,6.9-.02,154.26,0,163.65,0,.76,0,.68.13.68,1.13-.06,31.82-.04,110.51-.04,110.19l-.02,3.2Z"/>
  <path class="cls-3" d="M353.73,220.01c-38.61.29-132.95.06-162.68.13-.81,0-1.34.01-1.63-.02-.4-.05-.35-.34-.37-.72.08-6.57-.06-76.04,0-99.67,0-5.42,0-10.42,0-13.87,0-2.75,2.22-4.99,4.98-4.99,5.57-.02,13.85.2,14.11.2,6.9-.02,135.62-.5,145.01-.5.76,0,.64.13.68,1.13-.06,31.69.15,87.64-.09,118.3h0Z"/>
  <path d="M308.55,141.82c-.4.54-4.78.24-6.55.31-8.84-.01-19.26.01-28.27,0-2.36,0-2.27-.29-2.28-3.01,0-1.8,0-3.53,0-5.44,0-8.45,0-18.42,0-26.67.05-2.03-.16-5.68.28-5.97.09-.62,3.12-.44,4.96-.46,9.45,0,20.34-.01,29.96,0,2.4,0,2.27.3,2.28,3.16,0,.35,0,.73,0,1.14,0,9.96,0,21.46,0,31.24-.06,1.95.18,5.52-.34,5.67l-.04.03Z"/>
  <path d="M211.77,261.39c-.4.54-4.78.24-6.55.31-8.84-.01-19.26.01-28.27,0-2.36,0-2.27-.29-2.28-3.01,0-1.8,0-3.53,0-5.44,0-8.45,0-18.42,0-26.67.05-2.03-.16-5.68.28-5.97.09-.62,3.12-.44,4.96-.46,9.45,0,20.34-.01,29.96,0,2.4,0,2.27.3,2.28,3.16,0,.35,0,.73,0,1.14,0,9.96,0,21.46,0,31.24-.06,1.95.18,5.52-.34,5.67l-.04.03Z"/>
  <path class="cls-3" d="M208.04,434.12c.09,19.99-15.71,37.21-35.67,38.73-21.7,2.01-41.26-15-42.21-36.76-1.51-22.16,17.45-41.83,39.74-41.02,20.74.11,38.4,18.12,38.14,38.85v.2Z"/>
  <path class="cls-3" d="M381.89,434.12c.25,20.73-17.4,38.75-38.14,38.85-22.29.8-41.25-18.86-39.73-41.02.95-21.76,20.51-38.77,42.21-36.76,19.95,1.52,35.76,18.74,35.67,38.73v.2Z"/>
  <g>
    <path class="cls-2" d="M462.62,276.39c-43.9-.21-116.14.92-160.59-.25-2.72-.07-4.87-2.3-4.86-5.02.16-29.59-.59-175.77.1-204.86.06-2.72,2.29-4.89,5.01-4.88,36.76.11,134.37-.4,160.54.11,2.72.05,4.89,2.27,4.89,4.99.06,43.27.13,151.78-.08,204.94-.01,2.76-2.26,4.99-5.02,4.97Z"/>
    <path class="cls-1" d="M332.42,95.17h100"/>
    <path class="cls-1" d="M332.42,121.35h100"/>
    <path class="cls-1" d="M332.42,147.52c7.2,0,93.13,0,100,0"/>
    <path class="cls-3" d="M407.62,225.17c.1,17.97-18.94,30.27-35.27,23.02-24-10.71-17.87-46.33,8.42-48.26,14.23-1.18,27.05,10.89,26.85,25.04v.2Z"/>
    <path class="cls-1" d="M367.63,225.6c1.95,1.93,5.81,5.75,7.97,7.88,1.13.96,1.66,2.05,2.59,1.93,3.37-3.25,15.47-17.12,19.02-20.86"/>
  </g>
</svg>